<svg class="icon" style="width: 1em;height: 1em;vertical-align: middle;fill: currentColor;overflow: hidden;" viewBox="0 0 1024 1024" version="1.1" xmlns="http://www.w3.org/2000/svg"><path d="M357.236 212.655H288L64 799.127h73.309L198.4 636.218h248.436l61.091 162.909h77.382L357.236 212.655zM218.764 575.127l93.673-252.509c2.715-8.145 5.43-20.364 8.145-36.655h4.073c2.715 16.291 5.43 28.509 8.145 36.655l89.6 252.509H218.764zM960 526.255c0-103.176-48.873-154.764-146.618-154.764-54.303 0-101.818 13.576-142.545 40.727v65.164c40.727-32.582 85.527-48.873 134.4-48.873 57.018 0 85.527 35.297 85.527 105.891l-126.255 16.291c-92.315 13.576-138.473 59.733-138.473 138.473 0 38.012 12.218 67.879 36.655 89.6 24.436 21.721 57.018 32.582 97.745 32.582 57.018 0 100.461-25.794 130.327-77.382v65.164H960V526.255z m-69.236 105.89c0 35.297-10.861 64.485-32.582 87.564s-48.873 34.618-81.455 34.618c-24.436 0-44.121-6.788-59.055-20.364s-22.4-29.867-22.4-48.873c0-29.867 8.145-50.23 24.436-61.091 16.291-10.861 40.727-17.648 73.309-20.364l97.745-16.291v44.801z" fill="#666666" /></svg>