<svg class="icon" style="width: 1em;height: 1em;vertical-align: middle;fill: currentColor;overflow: hidden;" viewBox="0 0 1024 1024" version="1.1" xmlns="http://www.w3.org/2000/svg"><path d="M512 170.666667a42.666667 42.666667 0 0 1 0-85.333334c235.648 0 426.666667 191.018667 426.666667 426.666667s-191.018667 426.666667-426.666667 426.666667S85.333333 747.648 85.333333 512a426.538667 426.538667 0 0 1 224.426667-375.765333 42.666667 42.666667 0 0 1 40.533333 75.093333A341.333333 341.333333 0 1 0 512 170.666667z m-42.666667 230.997333l-97.834666 97.834667a42.666667 42.666667 0 1 1-60.330667-60.330667l170.666667-170.666667C508.714667 241.621333 554.666667 260.650667 554.666667 298.666667v426.666666a42.666667 42.666667 0 0 1-85.333334 0V401.664z m135.168 27.306667a42.666667 42.666667 0 1 1 70.997334-47.317334l42.666666 64a42.666667 42.666667 0 1 1-70.997333 47.36l-42.666667-64z" /></svg>