<svg xmlns="http://www.w3.org/2000/svg" viewBox="0 0 1024 1024"><path d="M92.748283 203.507071h838.503434v44.140606H92.748283zM644.402424 115.238788v44.127677h44.127677V115.238788c0-24.384646-19.75596-44.127677-43.998384-44.127677h-265.050505a43.97899 43.97899 0 0 0-31.172525 12.916364 43.918222 43.918222 0 0 0-12.825859 31.211313v44.127677h44.127677V115.238788h264.791919z" fill="#3D3D3D"/><path d="M203.073939 909.614545v-661.979798H158.946263V909.575758c0 24.410505 19.639596 44.179394 44.179394 44.179394h617.761616c24.410505 0 44.179394-19.639596 44.179394-44.179394V247.634747H820.926061v661.979798H203.073939z" fill="#3D3D3D"/><path d="M313.412525 335.90303h44.127677V733.090909h-44.127677V335.90303z m176.523637 0h44.127676V733.090909H489.936162V335.90303z m176.523636 0h44.127677V733.090909h-44.127677V335.90303z" fill="#3D3D3D"/></svg>