<svg class="icon" style="width: 1em;height: 1em;vertical-align: middle;fill: currentColor;overflow: hidden;" viewBox="0 0 1024 1024" version="1.1" xmlns="http://www.w3.org/2000/svg"><path d="M164.949333 337.152q56.32-35.242667 130.218667-35.242667 136.704 0 136.704 143.616v243.285334h-66.304v-58.368h-1.706667q-39.253333 67.328-115.882666 67.328-55.04 0-87.466667-29.781334Q128 638.293333 128 587.690667q0-105.984 125.44-123.392l112.128-15.701334q0-92.672-76.544-92.672-68.096 0-124.074667 45.824v-64.597333zM276.992 511.146667q-46.421333 6.144-64 23.210666-17.664 17.066667-17.664 47.786667 0 27.050667 19.114667 44.117333 19.2 17.066667 50.602666 17.066667 43.776 0 72.106667-30.72 28.416-30.72 28.416-77.226667V499.2l-88.576 11.946667z m332.970667 124.416v53.248h-67.072V129.365333h67.072v246.784h1.365333q44.373333-74.24 129.877333-74.24 71.082667 0 112.896 50.090667 41.898667 50.090667 41.898667 136.874667 0 95.744-46.933333 152.32-47.018667 56.576-125.354667 56.576-73.813333 0-112.384-62.293334h-1.365333zM609.621333 533.333333q0 45.824 29.696 77.397334t74.496 31.573333q53.333333 0 83.370667-40.96 30.122667-40.96 30.122667-113.493333 0-59.733333-28.074667-95.146667-27.989333-35.413333-76.544-35.413333-49.152 0-81.152 35.242666-31.914667 35.157333-31.914667 89.6v51.2zM1024 697.770667h-78.762667V815.786667H78.762667V697.770667H0v196.864h1024V697.770667z" fill="#222222" /></svg>